<svg xmlns="http://www.w3.org/2000/svg" viewBox="0 0 4018.65 3096.83"><path fill-rule="evenodd" clip-rule="evenodd" fill="#1E1819" d="M2672.85 893.98l350.31-540.77-23.49 643.59 622.47 166.44-619.84 176.74 34.32 643.34-359.29-535.1-601.09 231.65 397.3-507.12-405.75-500.38z"/><linearGradient id="a" gradientUnits="userSpaceOnUse" x1="1288.556" y1="641.628" x2="4331.6" y2="1514.207"><stop offset="0" stop-color="#eb9f00"/><stop offset=".45" stop-color="#eb9f00"/><stop offset=".55" stop-color="#fcd800"/><stop offset="1" stop-color="#fcd800"/></linearGradient><path fill-rule="evenodd" clip-rule="evenodd" fill="url(#a)" d="M2690.53 871.81l-605.3-221.35 406.25 500.39-397.56 506.97 601.11-231.52 359.53 534.85-34.3-643.34 619.3-176.74-622.21-165.91 23.76-644.12z"/><linearGradient id="b" gradientUnits="userSpaceOnUse" x1="2038.979" y1="1278.208" x2="2631.366" y2="399.959"><stop offset="0" stop-color="#eb9f00"/><stop offset=".45" stop-color="#eb9f00"/><stop offset=".55" stop-color="#fcd800"/><stop offset="1" stop-color="#fcd800"/></linearGradient><path fill-rule="evenodd" clip-rule="evenodd" fill="url(#b)" d="M2085.23 650.46l406 500.64 199.05-279.29-605.05-221.35z"/><linearGradient id="c" gradientUnits="userSpaceOnUse" x1="2115.183" y1="986.048" x2="2771.029" y2="1825.493"><stop offset="0" stop-color="#fcd800"/><stop offset=".45" stop-color="#fcd800"/><stop offset=".55" stop-color="#eb9f00"/><stop offset="1" stop-color="#eb9f00"/></linearGradient><path fill-rule="evenodd" clip-rule="evenodd" fill="url(#c)" d="M2491.48 1150.58l-397.56 507.24 601.11-231.52 89.75-282.2z"/><linearGradient id="d" gradientUnits="userSpaceOnUse" x1="2605.213" y1="1655.687" x2="3228.606" y2="1453.134"><stop offset="0" stop-color="#eb9f00"/><stop offset=".45" stop-color="#eb9f00"/><stop offset=".55" stop-color="#fcd800"/><stop offset="1" stop-color="#fcd800"/></linearGradient><path fill-rule="evenodd" clip-rule="evenodd" fill="url(#d)" d="M2695.03 1426.3l359.53 534.85-34.3-643.34-252.37-166.44z"/><linearGradient id="e" gradientUnits="userSpaceOnUse" x1="3203.729" y1="1396.034" x2="3203.729" y2="896.827"><stop offset="0" stop-color="#eb9f00"/><stop offset=".46" stop-color="#eb9f00"/><stop offset=".55" stop-color="#fcd800"/><stop offset="1" stop-color="#fcd800"/></linearGradient><path fill-rule="evenodd" clip-rule="evenodd" fill="url(#e)" d="M2767.89 1146.22l252.37 171.59 619.3-176.74-622.21-165.91z"/><path fill-rule="evenodd" clip-rule="evenodd" fill="#FFD800" d="M3004.94 1813.04l-275.07-409.96-18.75-27.33-30.87 11.89-460.92 177.25 304.89-388.58 20.34-26-20.86-25.74-311.24-383.56 464.1 169.73 30.62 11.35 17.95-27.85 268.73-414.32-17.96 493.65-1.58 33 32.47 8.45 477.02 127.37-474.91 135.3-31.93 9.23 1.57 33z"/><path fill-rule="evenodd" clip-rule="evenodd" fill="#1E1819" d="M2069.38 1430.14l-33.79.52 33.79-66 19.54-37.35 13.72 102.82h-33.26v.01zm144.92-9.24l-37.22-195.87h-138.32l-164.21 290.38-16.64 29.3h118.8l18.75-35.77 73.91-.53 44.36-.26 4.23 36.56H2237.27l-22.97-123.81zM1709.56 1293.52c29.3-.27 50.68 9.9 50.95 40.52l40.65.27 70.22.27h15.83c2.11-27.34-1.58-52.28-15.83-72.47-12.14-16.89-31.68-30.36-61.77-38.68-2.64-.52-5.28-1.46-8.45-2.24-52.28-13.59-157.87-16.76-222.54 29.83-67.84 43.29-100.04 161.56-77.35 227.29 30.1 99.64 225.17 96.08 288.27 36.56l1.07.27 7.11 28.65h3.44l43.82.26 26.4-135.03 9.23-47.11h-79.45l-80.79.25-13.18 71.81 45.92.26v1.86c-15.83 29.3-48.57 44.87-97.14 35.77-39.87-10.04-50.68-46.34-36.7-101.77 12.95-50.44 42.51-78.01 90.29-76.57zM1304.34 1429.61l-33.51.54 33.51-67.59 20.06-40.39 13.48 107.44h-33.54zm107.71-204.85h-6.34l-101.37-.27h-30.09L1128 1481.88l-34.85 62.16H1211.94l18.48-35.64 73.91-.26h44.35l4.23 36.56 52.8-.67 66.53.4-60.19-319.67zM1045.64 1332.46c-1.06 6.2-2.63 11.88-5.28 16.76-6.59 10.82-17.95 17.29-34.85 17.56h-77.08l11.89-67.05h75.76c10.57 0 18.75 2.38 24.29 7.51 5.27 5.16 7.39 13.2 5.27 25.22zm85.28-98.34c-13.21-6.46-29.31-9.09-47.26-9.63h-43.3l-198.51-.27-59.67 319.82h111.4l19.02-99.52H1045.65c31.14-1.06 62.31-13.86 85.01-39.6 16.35-17.81 27.97-41.83 32.99-72.46 8.45-55.83-5.55-84.47-32.73-98.34zM3096.81 2107.65c-22.69 18.5-51.21 29.57-79.99 34.85-56.22 9.49-115.09-5.28-139.11-40.39-38.54-47.78-29.05-163.14 18.47-243.52 27.45-45.02 70.49-75.9 120.64-85.8 13.99-3.04 28.24-4.09 43.57-3.56 78.13 3.83 121.16 44.08 119.32 124.06-4.23 102.43-34.86 172.66-82.9 214.36zm-25.87-506.85c-18.75 0-36.43.94-53.85 1.99-222.28 13.59-363.77 119.18-406.01 367.59a342.994 342.994 0 00-4.76 32.73c-5.27 48.57-3.96 91.87 4.76 129.36 29.29 127.23 142.81 190.07 385.95 180.03 6.86-.51 13.2-1.05 19.79-1.56 245.77-16.11 365.89-137.28 406.27-357.72 46.2-267.81-85-358.89-352.15-352.42zM2368.21 1938.97c-15.31 97.14-56.5 170.26-157.87 181.62-4.23.27-8.98.79-13.47 1.06h-146.51l15.57-82.9 46.2-246.44 98.73-.39h46.99c83.44 5.55 124.1 49.11 110.36 147.05zm243.93-168.43c-27.99-120.12-133.59-152.85-307.27-145.85h-238.93l-155.74.27-38.81 207.63-70.74 373.26-15.59 83.42H2250.48c181.62-1.31 315.73-91.86 360.6-345.29l1.06-6.34c10.28-68.63 10.28-123.55 0-167.1zM1037.2 1623.64H417.9l-30.63 166.44 215.4.26-93.97 497.1 232.83.52 93.98-497.35 201.69.26h16.11l30.62-167.23zM1484.39 2106.59c-22.43 18.49-50.16 29.57-78.67 34.85-36.43 6.07-73.11 2.65-101.89-9.76-16.37-7.14-29.57-17.43-38.54-30.37-38.55-48.04-23.23-172.63 23.76-253.03 4.74-7.52 9.77-14.63 15.05-21.37 26.4-31.68 60.97-50.16 101.62-56.37 13.47-2.11 27.47-2.9 42.24-2.11 78.14 3.82 121.44 43.82 119.85 123.81-4.23 102.42-35.37 172.66-83.42 214.35zm319.94-353.34c-40.65-115.62-160.77-157.47-345.83-153.24-17.94.27-35.36.79-52.8 1.73-36.16 2.11-69.94 6.73-101.37 14.12-69.69 15.32-128.3 44.08-176.34 87.37-37.22 33.79-67.59 77.08-90.8 130.68-20.07 47.78-34.85 103.74-43.3 168.15-8.97 89.76 2.65 161.04 43.04 212.24 21.9 27.72 51.74 49.63 90.53 65.47 45.68 19 104.01 29.57 176.35 32.22 25.34.51 52.28.51 81.31-.55 6.86-.51 13.47-1.06 20.58-1.06 232.85-16.09 352.7-125.91 398.09-326.01 2.65-10.3 5.3-21.12 6.87-31.95 14.27-82.36 11.62-147.95-6.33-199.17z"/><path fill-rule="evenodd" clip-rule="evenodd" fill="#E1121B" d="M2093.66 1409.55l-33.79.27 33.79-65.74 19-37.09 14.52 102.29-33.52.27zm144.67-9.11l-36.96-196.01h-138.32l-164.21 290.38-16.64 29.16h119.06l18.48-35.64 73.91-.52 43.82-.26 4.76 36.69h119.31l-23.21-123.8zM1733.85 1272.81c29.03-.27 50.68 9.76 51.2 40.65l40.66.26 69.7.27h16.1c1.84-27.32-1.58-52.14-15.84-72.47-12.14-16.76-31.67-30.09-61.77-38.54-2.38-1.06-5.55-1.84-8.2-2.38-52.52-13.45-158.13-16.75-223.07 29.57-67.57 43.3-99.78 162.1-77.08 227.55 30.1 99.66 224.92 96.1 288.27 36.58l1.33.25 6.6 28.65 3.7.27h43.81l25.86-134.77 9.52-47.65h-9.25l-69.7.53h-81.31l-12.92 71.8 45.92.26-.52 1.85c-15.31 29.3-48.05 44.88-96.62 35.77-40.12-10.03-50.69-46.34-36.43-102.04 12.16-50.01 41.73-77.74 90.04-76.41zM1328.63 1409.01l-33.78.54 33.78-67.72 20.06-40.25 13.74 107.44h-33.8v-.01zm107.71-204.84h-5.81l-101.9-.27h-30.36l-145.98 257.26-35.1 62.3 35.1.26h83.69l18.74-35.64 73.91-.91h43.82l4.75 36.55h119.33l-60.19-319.55zM1069.93 1311.87c-1.06 6.21-2.64 12.14-5.28 16.76-6.59 10.83-17.95 17.31-34.85 17.83l-77.08-.27L964.6 1279h75.76c10.56 0 19.02 2.52 24.28 7.39 5.03 5.42 7.4 13.87 5.29 25.48zm85.28-98.2c-12.95-6.61-29.31-9.51-47.26-10.16H866.14l-60.19 319.95h111.93l19.27-99.92h133.05c30.88-.52 62.04-13.47 84.75-39.2 16.37-17.83 27.97-41.98 33-72.47 8.17-55.7-5.82-84.73-32.74-98.2zM3121.09 2087.07c-22.69 18.47-51.21 29.57-80.24 34.58-56.23 9.76-115.1-5.02-139.12-39.86-38.28-48.05-28.78-163.15 18.47-243.79 27.72-44.88 70.75-75.76 121.17-85.8 13.73-3.02 27.97-4.08 43.03-3.82 78.39 4.09 121.43 44.49 119.85 124.34-4.22 102.41-35.38 172.37-83.16 214.35zm-25.87-506.45c-18.5 0-36.44.51-53.85 1.71-222.8 13.45-364.04 118.91-406.01 367.47a335.317 335.317 0 00-4.76 32.99c-5.27 48.32-4.22 91.62 4.76 129.09 29.05 126.98 142.56 190.07 385.95 179.51 6.86 0 13.2-.52 19.54-1.06 245.76-16.1 365.87-136.99 406.26-357.42 46.19-268.37-84.73-359.03-351.89-352.29zM2392.5 1918.38c-15.31 97.41-56.5 170.27-157.87 181.37-4.49.51-8.96.79-13.45 1.06l-130.68.26-15.83.25 15.83-83.42 45.41-246.43h146.25c83.42 5.27 124.07 48.84 110.34 146.91zm243.92-168.42c-28.51-120.12-134.1-152.84-307.27-145.85H2090.5l-156.01.24-39.34 207.63-69.95 373.55-15.57 83.15h465.14c181.08-1.05 315.99-91.86 360.6-345.29l1.06-6.07c10.55-68.78 10.02-123.95-.01-167.36zM1061.49 1603.06l-619.57-.27-30.63 166.69 215.41.27-93.71 497.35 232.82.53 93.99-497.61h218.06l30.09-166.96zM1508.67 2086.01c-22.43 18.21-50.68 29.57-78.67 34.58-36.43 6.61-73.38 2.63-101.89-9.51-16.37-7.4-29.57-17.16-39.07-30.36-38.27-48.05-22.97-172.38 24.29-253.03 4.75-7.66 9.49-14.66 14.78-21.11 26.4-31.95 61.23-50.3 101.89-56.36 13.21-2.38 27.47-2.91 42.24-2.65 78.14 4.09 121.18 44.35 119.33 124.07-4.23 102.44-34.85 172.93-82.9 214.37zm319.68-353.34c-40.39-115.49-160.5-157.47-345.56-153.11-18.22 0-35.36.51-52.53 1.57-36.16 2.26-69.95 6.74-101.63 14.14-70.21 15.7-128.82 44.09-176.34 87.38-37.48 34.05-67.84 77.22-90.8 130.67-20.59 47.65-34.85 103.48-43.3 168.42-9.49 89.51 2.91 160.77 43.3 212.26 21.64 27.71 51.21 49.36 90.54 65.72 45.68 18.5 103.75 29.06 176.08 31.68 25.34.8 52.28.54 80.78-1.06 7.38 0 13.72-.51 20.84-.51 233.12-16.12 352.44-125.94 398.62-326.29 2.11-10.31 4.49-20.61 6.61-31.68 14.26-82.26 11.61-147.72-6.61-199.19z"/><path fill-rule="evenodd" clip-rule="evenodd" fill="#1E1819" d="M537.48 2543.49h26.65c20.34 0 35.37-3.44 44.63-10.82 9.22-6.87 15.3-16.1 16.61-27.45 1.34-11.09-.77-20.07-6.85-27.72-6.34-7.93-19.55-11.34-39.61-11.34h-30.62l-10.81 77.33zm-86.85-148.08l178.44.51c38.54 0 66.53 8.99 83.42 27.45 16.37 18.5 22.46 44.63 17.43 78.67-4.76 35.37-19.02 62.29-43.03 82.1-23.48 20.07-57.29 29.83-100.58 29.83h-58.6l-18.21 128.56H401.53l49.1-347.12zM921.05 2610.27l-21.13-124.59-54.91 124.59h76.04zm11.6 74.97H811.22l-25.35 57.56-109.28-.27 178.98-346.62h116.96l81.83 346.88H941.91l-9.26-57.55zM1226.21 2536.36h45.4c4.76 0 14.79-1.06 29.05-4.5 7.38-1.58 13.72-5.02 19-10.82 5.28-5.8 8.45-12.66 9.51-20.31 1.85-11.1-.53-19.81-6.87-25.62-6.33-6.06-19.26-8.96-38.8-8.96h-47.25l-10.04 70.21zm-136.48 206.7l48.84-347.14h178.98c32.72 0 57.53 2.65 74.43 8.45 16.9 6.07 29.57 16.38 38.01 31.68 8.45 15.31 11.1 34.33 8.45 56.49-2.89 19-9.5 35.91-19.52 49.62-10.03 13.73-22.98 25.34-38.54 33.8-10.3 5.54-23.24 10.03-39.61 13.73 12.14 4.75 20.86 8.44 25.88 12.66 3.44 3.17 8.44 9.51 14.78 18.48 6.09 9.51 10.03 16.62 12.14 21.65l37.5 100.56h-120.92l-42.49-106.11c-5.55-13.72-10.83-22.96-15.85-26.67-7.13-5.55-15.3-8.44-25.09-8.44h-9.49l-19.53 141.22h-107.97z"/><path fill-rule="evenodd" clip-rule="evenodd" fill="#1E1819" d="M1674.99 2610.81l-20.59-124.61-55.45 124.61h76.04zm11.61 74.97h-121.43l-24.82 57.28H1430.8l178.97-347.14 117.21.55 81.31 346.86h-112.2l-9.49-57.55zM1910.72 2391.97l302 .27-11.35 87.63H2100l-34.84 266.36h-99.79l35.1-266.36-101.1-.53zM2305.91 2570.16c-4.75 35.89-2.11 61.24 7.92 77.08 10.03 15.83 25.61 23.23 46.47 23.23 21.12.27 38.54-7.4 52.28-22.71 13.97-15.31 23.22-42.77 28.5-82.36 4.23-33.53 1.32-57.55-8.98-73.38-10.03-15.06-25.61-22.96-46.46-22.96-20.06 0-36.96 7.9-51.22 23.49-14.26 15.84-23.75 41.7-28.51 77.61zm-99.26-.54c7.65-58.08 27.98-102.95 61.25-135.15 33.78-32.21 76.55-48.05 128.82-48.05 53.32 0 92.39 15.57 117.21 47.25 25.06 31.68 33.78 76.03 26.4 133.32-5.82 41.18-16.12 74.97-32.22 101.64-16.35 26.66-37.22 46.98-63.35 62.04-25.88 14.51-56.5 21.64-91.88 21.64-36.43 0-66-6.07-87.65-19-22.17-12.66-39.06-32.47-50.15-60.19-11.08-27.47-14.23-62.31-8.43-103.5zM2706.64 2473l-25.34 193.24h24.54c20.86 0 35.91-2.63 45.42-7.66 9.24-5 17.41-13.98 23.75-26.65 6.61-12.68 11.89-32.73 15.58-61.25 5.28-37.49 2.9-63.09-6.61-77.08-9.23-13.72-26.65-20.6-52.52-20.6h-24.82zm-88.7-80.52h147.84c29.03 0 51.73 4.49 68.36 12.94 16.64 8.72 29.83 21.65 39.6 37.74 9.78 16.12 15.85 35.12 18.23 56.77 2.11 21.65 2.11 44.35-1.07 68.63-5.27 37.77-13.19 67.05-23.5 87.9-10.55 20.86-23.5 38.29-39.33 52.54-15.83 13.99-31.67 23.49-48.57 27.99-22.71 6.59-42.5 9.49-60.46 9.49h-147.56l46.46-354zM3029.23 2570.68c-4.22 35.37-1.58 61.25 8.45 77.08 10.03 15.31 25.33 23.24 46.19 23.24 21.37 0 38.81-7.39 52.53-22.98 13.74-15.05 23.24-42.75 28.51-82.1 4.23-33.53 1.32-57.81-8.99-73.39-10-15.32-25.85-23.22-46.46-23.22-20.06 0-37.47 7.9-51.73 23.75-14.24 15.58-23.22 41.19-28.5 77.62zm-98.72-.52c7.38-58.08 27.97-102.95 61.23-135.16 33.26-32.47 76.03-48.03 128.82-48.03 53.32 0 92.38 15.56 117.22 47.25 25.07 31.68 33.78 76.03 26.13 132.78-5.55 41.71-16.11 75.5-32.22 102.16-16.1 26.66-37.2 46.99-63.09 61.78-25.86 14.78-56.48 21.9-92.38 21.9-35.89 0-65.47-6.34-87.65-19-21.9-12.68-38.28-33-49.63-60.73-11.08-27.46-14.25-61.78-8.43-102.95zM3334.39 2392.75h95.57l-10.55 80.8-39.61 162.33-59.14-.27 3.19-162.07 10.54-80.79zm-31.68 267.43l89.22.26-11.34 86.32h-88.97l11.09-86.58z"/><path fill-rule="evenodd" clip-rule="evenodd" fill="#E1121B" d="M553.85 2532.14h26.13c20.86 0 35.89-3.44 45.15-10.55 9.5-7.39 14.78-16.9 16.37-27.99 1.31-10.55-.8-20.05-6.87-27.44-6.34-7.39-19.29-11.62-39.35-11.62h-30.62l-10.81 77.6zM467 2384.31h177.91c39.07 0 67.05 9.23 83.42 27.72 16.88 18.21 22.96 44.61 18.47 78.93-5.28 34.84-19.79 62.29-43.82 81.83-23.75 19.81-57.02 29.57-100.31 29.57h-58.86l-17.71 128.82H417.9l49.1-346.87zM937.15 2599.19l-20.59-124.85-55.7 124.85h76.29zm11.62 74.97H827.06l-24.82 57.29-109.54-.27 179.51-346.87h116.68l81.56 347.14H958.28l-9.51-57.29zM1242.57 2524.74h45.4c5.28 0 14.79-1.04 29.05-4.48 7.38-1.32 13.72-4.75 19-10.82 5.28-5.82 8.45-12.42 9.51-20.07 1.58-11.35-.53-20.04-7.13-25.86-6.07-5.81-18.75-8.98-38.54-8.98h-47.26l-10.03 70.21zm-136.74 206.71l48.84-347.14 178.98.53c32.99 0 57.8 2.64 74.7 8.19 16.9 5.54 29.57 16.35 38.01 31.67 8.45 15.58 11.1 34.06 8.2 56.23-2.9 19.26-9.24 35.89-19.54 49.63-10.3 14.26-22.98 25.34-38.28 34.05-10.3 5.55-23.24 10.3-39.61 13.99 11.89 3.96 20.59 8.45 25.87 12.68 3.44 2.9 8.44 8.98 14.78 18.48 5.8 8.97 10.03 16.1 11.62 21.12l38.02 100.85h-121.44l-42.24-106.13c-5.27-13.72-10.55-23.23-15.56-26.92-7.13-5.28-15.58-7.93-25.09-7.93h-9.49l-19.79 140.71h-107.98z"/><path fill-rule="evenodd" clip-rule="evenodd" fill="#E1121B" d="M1691.36 2599.72l-20.6-124.88-55.44 124.88h76.04zm11.61 74.97h-121.43l-25.36 57.02H1446.9l179.51-346.87h116.68l81.58 347.14h-112.2l-9.5-57.29zM1926.83 2380.88h302l-11.09 87.12h-101.89l-34.33 266.88H1982l35.1-266.88h-101.63zM2322.27 2558.54c-4.75 35.9-1.85 61.77 7.92 77.08 10.3 15.58 25.36 23.51 46.19 23.51 21.4 0 38.81-7.66 52.54-22.72 13.73-15.57 23.23-42.75 28.51-82.62 4.23-33.26 1.59-57.54-8.97-72.86-10.03-15.58-25.86-23.23-46.46-23.23-20.06 0-36.96 7.65-51.22 23.23-14.25 15.84-23.75 41.71-28.51 77.61zm-99.25-.53c7.38-57.83 27.98-102.42 61.77-134.91 33.26-32.19 76.02-48.31 128.02-48.31 53.6 0 92.68 15.85 117.49 47.52 25.06 31.68 33.78 76.03 26.13 133.05-5.55 41.19-16.1 75.5-32.22 101.9-16.1 26.4-37.22 46.99-63.08 61.77-25.88 14.79-56.25 22.17-92.41 22.17-35.89 0-64.94-6.6-87.38-19.27-22.17-12.93-38.81-32.74-49.88-60.45-11.09-27.44-13.72-61.76-8.44-103.47zM2723.01 2461.39l-25.36 193.24h24.29c20.86 0 35.92-2.11 45.41-7.4 9.23-5.28 17.16-13.73 24.29-26.93 6.34-12.41 11.61-32.72 15.31-60.98 4.75-37.74 2.64-63.61-6.33-77.33-9.52-13.99-27.2-20.6-52.81-20.6h-24.8zm-89.22-80.51l147.83.27c29.04 0 52.26 4.23 69.16 13.21 16.62 8.69 30.09 21.12 39.33 37.47 9.78 15.83 15.58 34.85 18.21 56.49 2.11 21.65 2.11 44.36-1.58 68.65-4.75 37.75-12.15 67.32-22.71 88.16-10.82 20.6-24.03 38.29-39.6 52.28-15.83 14.24-32.2 23.23-48.57 28.24-22.71 6.34-42.76 9.51-60.46 9.51h-147.57l45.96-354.28zM3046.12 2559.07c-4.75 35.64-2.1 61.23 7.66 77.08 10.28 15.31 25.61 23.48 46.19 23.48 21.65 0 39.08-7.65 52.8-22.96 13.72-15.32 23.23-43.02 28.24-82.37 4.49-33.51 1.31-57.8-8.97-72.86-10.28-15.56-25.61-23.49-46.73-23.49-19.81 0-36.96 7.93-50.94 23.49-14.52 15.84-23.76 41.72-28.25 77.63zm-99.24-.53c7.38-57.8 27.44-102.69 61.49-134.89 33.27-32.22 76.04-48.3 128.3-48.3 53.6 0 92.66 15.85 117.47 47.53 24.82 31.67 33.54 76.01 25.86 133.03-5.27 41.18-16.09 75.49-32.2 101.62-16.1 26.4-36.96 47.26-62.81 62.05-25.88 14.53-56.5 21.64-92.41 21.64s-65.46-6.06-87.64-19c-21.91-12.67-38.54-32.74-49.63-60.19-11.08-27.47-14.25-62.31-8.43-103.49zM3351.03 2381.41h95.3l-10.57 80.52-39.6 162.35h-59.14l3.18-162.35 10.83-80.52zm-31.95 267.41h89.23l-11.61 86.59h-89.23l11.61-86.59z"/><path fill-rule="evenodd" clip-rule="evenodd" fill="#1E1819" d="M2784.26 1240.34c-4.76 1.18-10.31 1.44-17.17.52l33.26-85.13c5.28 5.94 9.24 10.82 11.89 15.04 6.34 11.49 6.34 24.15 1.05 37.62-6.86 17.95-16.37 28.51-29.03 31.95zm-10.56-196.68c-6.87-11.61-7.92-24.16-2.92-37.36 4.76-11.88 11.89-20.33 21.13-24.94 6.6-2.64 13.45-3.7 21.38-2.37l-29.84 76.55c-4.48-4.09-7.91-8.32-9.75-11.88zm103.48 100.71c-7.92-13.33-25.34-31.41-51.49-54.25l35.65-92.53c7.92 6.6 12.67 14.39 13.72 24.15 1.06 7.79-.54 19.01-4.76 33.52l62.32 23.89c13.72-38.14 10.03-71.01-9.52-98.07-8.96-13.46-22.69-25.47-41.18-36.03l12.68-33.53-48.05-18.61-12.68 33c-10.03-2.77-19-4.62-25.6-4.62-15.33-1.05-31.16 1.58-46.2 8.71-11.89 5.15-22.96 12.93-32.2 22.96-9.77 10.3-16.89 22.71-22.98 37.36-8.17 22.18-9.76 43.56-3.17 64.15 6.07 20.59 22.44 41.05 49.37 61.78l5.28 4.21-39.35 101.5c-9.51-7.78-14.78-16.76-16.62-26.26-1.06-8.32 1.05-22.7 6.34-43.81l-63.9-24.69c-17.68 43.56-15.83 79.59 3.7 108.36 9.76 13.74 26.4 27.32 49.63 40.52l-18.48 47.92 13.21 5.15-1.07.92 23.24 8.84.52-.79 12.14 4.63 18.48-48.18c20.58 4.63 40.13 5.15 58.08 1.84 36.16-6.73 62.02-30.09 77.6-69.82 11.66-30.08 10.08-57.41-4.71-82.22z"/><path fill-rule="evenodd" clip-rule="evenodd" fill="#FFF" d="M2798.52 1233.06c-4.49 1.32-10.04 1.59-16.9.8l32.73-85.13c5.81 5.67 9.76 10.42 12.14 14.78 6.34 11.62 6.59 24.15 1.58 37.89-7.38 17.94-16.89 28.5-29.55 31.66zm-10.57-196.66c-6.87-11.48-7.92-23.88-2.65-37.35 4.76-12.02 11.62-20.33 21.13-24.69 6.34-2.9 13.18-3.69 21.64-2.63l-30.09 76.82c-4.49-4.36-7.39-8.32-10.03-12.15zm103.48 100.58c-7.91-12.93-25.09-31.15-51.49-54.11l35.65-92.53c8.44 6.47 12.66 14.65 13.72 24.03 1.06 7.92-.53 19.01-4.76 33.65l62.32 24.03c13.72-38.14 10.55-70.88-9.52-97.94-8.44-13.59-22.17-25.48-41.17-36.3l13.2-33.53-48.04-18.74-13.21 33c-10.3-2.64-18.48-3.96-25.33-4.48-15.59-1.2-30.89 1.85-46.47 8.84-11.62 5.28-22.69 12.8-32.2 23.1-9.51 9.9-17.43 22.44-22.71 37.09-8.97 22.44-9.78 43.7-3.69 64.41 6.32 20.46 22.69 41.06 49.62 61.38l5.54 4.35-39.31 101.51c-9.52-7.92-15.32-16.5-16.9-26.01-1.06-8.45 1.06-23.1 6.34-43.83l-63.36-24.67c-17.69 43.29-16.63 79.58 3.17 108.23 10.03 13.6 26.4 27.19 49.63 40.66l-18.48 47.65 12.93 5.15-.26.79 23.23 8.99v-.8l12.14 4.76 18.48-48.45c20.58 4.89 40.13 5.55 58.6 1.98 35.91-6.59 61.77-29.82 77.08-69.56 11.62-30.12 10.05-57.7-4.75-82.65z"/></svg>